<?xml version="1.0" encoding="utf-8"?>
<!-- Generator: Adobe Illustrator 21.0.2, SVG Export Plug-In . SVG Version: 6.00 Build 0)  -->
<svg version="1.1" id="Layer_1" xmlns="http://www.w3.org/2000/svg" xmlns:xlink="http://www.w3.org/1999/xlink" x="0px" y="0px"
	 viewBox="0 0 141.6 141.6" style="enable-background:new 0 0 141.6 141.6;" xml:space="preserve">
<style type="text/css">
	.st0{fill:#946E48;}
	.st1{fill:#C8A470;}
	.st2{fill:#A79378;}
	.st3{fill:#947648;}
	.st4{fill:#946531;}
	.st5{clip-path:url(#SVGID_2_);fill:#603416;}
	.st6{fill:#E9D494;}
	.st7{fill:#946A3F;}
	.st8{fill:#643914;}
	.st9{fill:none;stroke:#946A3F;stroke-width:2;stroke-linecap:round;stroke-miterlimit:10;}
	.st10{fill:#B9C1C2;}
	.st11{fill:#A7B1B1;}
	.st12{fill:#FBFDFB;}
	.st13{fill:#763B22;}
	.st14{fill:#541B0D;}
	.st15{fill:#AF9C91;}
	.st16{fill:#C8BBB3;}
</style>
<path class="st0" d="M72.9,44.4c0,0-8.6,25.3-9.6,28.5C62.4,76,61.6,87.6,60.1,91c-1.6,3.4-4.2,6.4-7.6,5.8l19.8-54.1L72.9,44.4z"/>
<path class="st1" d="M70.5,43.5c0,0-9.7,25-11,28c-1.3,3-8.2,12.4-9.2,16c-1,3.6-0.9,7.6,2.2,9.3l19.6-54.2L70.5,43.5z"/>
<ellipse transform="matrix(0.342 -0.9397 0.9397 0.342 28.0728 90.4622)" class="st2" cx="78.6" cy="25.2" rx="20" ry="20"/>
<path class="st3" d="M85.5,6.3c10.4,3.8,15.8,15.3,12,25.7c-3.8,10.4-15.3,15.8-25.7,12"/>
<path class="st4" d="M82.9,82.9c0,0-29.9,52-29.8,53.4c0.2,1.6,2.3,2.9,3.6,2.7c0.7-0.1,33.7-51.1,33.7-51.1L82.9,82.9z"/>
<g>
	<defs>
		<path id="SVGID_1_" d="M81.2,81.9c0,0-26.6,47.5-26.5,48.8c0.1,1.5,2.1,2.7,3.2,2.4c0.6-0.1,30-46.7,30-46.7L81.2,81.9z"/>
	</defs>
	<clipPath id="SVGID_2_">
		<use xlink:href="#SVGID_1_"  style="overflow:visible;"/>
	</clipPath>
	<path class="st5" d="M82.9,82.9c0,0-29.9,52-29.8,53.4c0.2,1.6,2.3,2.9,3.6,2.7c0.7-0.1,33.7-51.1,33.7-51.1L82.9,82.9z"/>
</g>
<path class="st6" d="M93.9,58.2c0.1-4.5,3.1-19.8,9.4-22.9c6.3-3.1,15.2,4.4,16,5.4C117.5,41,109,49,106.9,55.2
	c2.7-6,9.8-12.4,12.8-12.9c3.1-0.5,3.1,4.6,3.1,4.6s-10.9,8.4-13,11.4c3-3,11.7-10.5,14.7-9.7S112.4,67,108.1,67.7
	C104.1,65.2,93.9,58.2,93.9,58.2z"/>
<path class="st7" d="M90.4,64c0,0-8.8,14-9.2,15.4c-0.3,1.3,0.1,2.5,1.7,3.5c1.6,1.1,8.9,6.2,10.1,6.2c1.2,0,1.4-0.8,2.3-2.1
	c0.9-1.3,8.8-14.6,8.8-14.6L90.4,64z"/>
<path class="st8" d="M104.2,72.2l-13.6-8.9c-0.8-0.5-1-1.6-0.5-2.4l1.4-2.2c0.5-0.8,1.6-1,2.4-0.5l13.6,8.9c0.8,0.5,1,1.6,0.5,2.4
	l-1.4,2.2C106.1,72.5,105,72.8,104.2,72.2z"/>
<line class="st9" x1="95.4" y1="61.5" x2="106" y2="68.4"/>
<ellipse transform="matrix(0.342 -0.9397 0.9397 0.342 28.0728 90.4622)" class="st10" cx="78.6" cy="25.2" rx="16.8" ry="16.8"/>
<path class="st11" d="M84.4,9.4c8.7,3.2,13.2,12.8,10,21.5c-3.2,8.7-12.8,13.2-21.5,10"/>
<path class="st12" d="M74,39.1c3.8-0.9,15.2-0.9,18.6-14.6C94.4,33.1,84.9,43.6,74,39.1z"/>
<path class="st13" d="M21.5,61.5l1.1,10c0,0,6.6,4.4,7.5,14.6c0.9,10.2-7.1,24-8.4,33.9c-1.3,9.9,2.9,10.1,7.9,10.3
	c7.5,0.4,8.8-2.7,9.5-9c0.7-6.3-3.7-24.6-3-34.2c0.7-9.6,10-14,10-14l2.6-10L21.5,61.5z M30.8,125.7c-1.3,0-2.3-1.4-2.3-3.2
	c0-1.8,1-3.2,2.3-3.2c1.3,0,2.3,1.4,2.3,3.2C33.1,124.2,32.1,125.7,30.8,125.7z"/>
<rect x="21.5" y="57.4" transform="matrix(0.9978 6.670649e-02 -6.670649e-02 0.9978 4.0741 -2.2144)" class="st14" width="27.3" height="5"/>
<path class="st15" d="M49,58.3c0,0,2.4-18.3,1.7-22.4c-1.7-4.1-6.6-6.7-6.6-6.7l-11-0.4v2.3c0,0-6.9-3.6-9-3.7v2c0,0-4.2-1.7-4.7-1
	c0,0,2.5,3.5,2.9,4.9c0.4,1.5-0.6,23.2-0.6,23.2L49,58.3z"/>
<g>
	<path class="st16" d="M27.5,33.4c0.1,1.5,0.2,3,0.2,4.4c0,1.5,0,3,0,4.5c-0.1,1.5-0.1,3-0.2,4.4c-0.1,1.5-0.3,3-0.6,4.4
		c0.1-1.5,0.2-3,0.2-4.4c0-1.5,0.1-3,0.1-4.4C27.3,39.3,27.3,36.3,27.5,33.4z"/>
</g>
<g>
	<path class="st16" d="M28.1,33.4c0.1,1.5,0.2,3,0.2,4.4c0,1.5,0,3,0,4.5c-0.1,1.5-0.1,3-0.2,4.4c-0.1,1.5-0.3,3-0.6,4.4
		c0.1-1.5,0.2-3,0.2-4.4c0-1.5,0.1-3,0.1-4.4C27.9,39.3,28,36.3,28.1,33.4z"/>
</g>
<g>
	<path class="st16" d="M28.8,33.4c0.1,1.5,0.2,3,0.2,4.4c0,1.5,0,3,0,4.5c-0.1,1.5-0.1,3-0.2,4.4c-0.1,1.5-0.3,3-0.6,4.4
		c0.1-1.5,0.2-3,0.2-4.4c0-1.5,0.1-3,0.1-4.4C28.6,39.3,28.6,36.3,28.8,33.4z"/>
</g>
<g>
	<path class="st16" d="M26.8,33.4c0.1,1.5,0.2,3,0.2,4.4c0,1.5,0,3,0,4.5c-0.1,1.5-0.1,3-0.2,4.4c-0.1,1.5-0.3,3-0.6,4.4
		c0.1-1.5,0.2-3,0.2-4.4c0-1.5,0.1-3,0.1-4.4C26.6,39.3,26.7,36.3,26.8,33.4z"/>
</g>
<g>
	<path class="st16" d="M32.2,33.4c0.1,1.5,0.2,3,0.2,4.4c0,1.5,0,3,0,4.5c-0.1,1.5-0.1,3-0.2,4.4c-0.1,1.5-0.3,3-0.6,4.4
		c0.1-1.5,0.2-3,0.2-4.4c0-1.5,0.1-3,0.1-4.4C32,39.3,32.1,36.3,32.2,33.4z"/>
</g>
<g>
	<path class="st16" d="M32.9,33.4c0.1,1.5,0.2,3,0.2,4.4c0,1.5,0,3,0,4.5c-0.1,1.5-0.1,3-0.2,4.4c-0.1,1.5-0.3,3-0.6,4.4
		c0.1-1.5,0.2-3,0.2-4.4c0-1.5,0.1-3,0.1-4.4C32.7,39.3,32.7,36.3,32.9,33.4z"/>
</g>
<g>
	<path class="st16" d="M33.5,33.4c0.1,1.5,0.2,3,0.2,4.4c0,1.5,0,3,0,4.5c-0.1,1.5-0.1,3-0.2,4.4c-0.1,1.5-0.3,3-0.6,4.4
		c0.1-1.5,0.2-3,0.2-4.4c0-1.5,0.1-3,0.1-4.4C33.3,39.3,33.4,36.3,33.5,33.4z"/>
</g>
<g>
	<path class="st16" d="M31.6,33.4c0.1,1.5,0.2,3,0.2,4.4c0,1.5,0,3,0,4.5c-0.1,1.5-0.1,3-0.2,4.4c-0.1,1.5-0.3,3-0.6,4.4
		c0.1-1.5,0.2-3,0.2-4.4c0-1.5,0.1-3,0.1-4.4C31.4,39.3,31.4,36.3,31.6,33.4z"/>
</g>
<g>
	<path class="st16" d="M30.9,33.4c0.1,1.5,0.2,3,0.2,4.4c0,1.5,0,3,0,4.5c-0.1,1.5-0.1,3-0.2,4.4c-0.1,1.5-0.3,3-0.6,4.4
		c0.1-1.5,0.2-3,0.2-4.4c0-1.5,0.1-3,0.1-4.4C30.7,39.3,30.8,36.3,30.9,33.4z"/>
</g>
<g>
	<path class="st16" d="M44,33.4c0.1,1.5,0.2,3,0.2,4.4c0,1.5,0,3,0,4.5c-0.1,1.5-0.1,3-0.2,4.4c-0.1,1.5-0.3,3-0.6,4.4
		c0.1-1.5,0.2-3,0.2-4.4c0-1.5,0.1-3,0.1-4.4C43.8,39.3,43.8,36.3,44,33.4z"/>
</g>
<g>
	<path class="st16" d="M44.6,33.4c0.1,1.5,0.2,3,0.2,4.4c0,1.5,0,3,0,4.5c-0.1,1.5-0.1,3-0.2,4.4c-0.1,1.5-0.3,3-0.6,4.4
		c0.1-1.5,0.2-3,0.2-4.4c0-1.5,0.1-3,0.1-4.4C44.4,39.3,44.5,36.3,44.6,33.4z"/>
</g>
<g>
	<path class="st16" d="M45.3,33.4c0.1,1.5,0.2,3,0.2,4.4c0,1.5,0,3,0,4.5c-0.1,1.5-0.1,3-0.2,4.4c-0.1,1.5-0.3,3-0.6,4.4
		c0.1-1.5,0.2-3,0.2-4.4c0-1.5,0.1-3,0.1-4.4C45.1,39.3,45.1,36.3,45.3,33.4z"/>
</g>
<g>
	<path class="st16" d="M43.3,33.4c0.1,1.5,0.2,3,0.2,4.4c0,1.5,0,3,0,4.5c-0.1,1.5-0.1,3-0.2,4.4c-0.1,1.5-0.3,3-0.6,4.4
		c0.1-1.5,0.2-3,0.2-4.4c0-1.5,0.1-3,0.1-4.4C43.1,39.3,43.2,36.3,43.3,33.4z"/>
</g>
</svg>
